HIERARCHY
ROOT Hips
{
	OFFSET 0.000000 0.000000 0.000000
	CHANNELS 6 Xposition Yposition Zposition Xrotation Yrotation Zrotation
	JOINT LeftUpLeg_virtual
	{
		OFFSET 0.000000 0.000000 0.000000
		CHANNELS 3 Xrotation Yrotation Zrotation
		JOINT LeftUpLeg
		{
			OFFSET 10.205400 -3.823500 0.155100
			CHANNELS 3 Xrotation Yrotation Zrotation
			JOINT LeftLeg
			{
				OFFSET 0.708757 -12.982077 0.567790
				CHANNELS 3 Xrotation Yrotation Zrotation
				JOINT LeftFoot
				{
					OFFSET -0.708756 -10.717838 -2.184338
					CHANNELS 3 Xrotation Yrotation Zrotation
					JOINT LeftToeBase
					{
						OFFSET 0.108149 -7.191104 7.560241
						CHANNELS 3 Xrotation Yrotation Zrotation
						JOINT LeftToe_End
						{
							OFFSET 0.070230 0.081724 4.490308
							CHANNELS 3 Xrotation Yrotation Zrotation
							End Site
							{
								OFFSET 0 0 0
							}
						}
					}
				}
			}
		}
	}
	JOINT RightUpLeg_virtual
	{
		OFFSET 0.000000 0.000000 0.000000
		CHANNELS 3 Xrotation Yrotation Zrotation
		JOINT RightUpLeg
		{
			OFFSET -10.205400 -3.823500 0.005500
			CHANNELS 3 Xrotation Yrotation Zrotation
			JOINT RightLeg
			{
				OFFSET -0.708756 -12.982134 0.610632
				CHANNELS 3 Xrotation Yrotation Zrotation
				JOINT RightFoot
				{
					OFFSET 0.708754 -10.717769 -1.945823
					CHANNELS 3 Xrotation Yrotation Zrotation
					JOINT RightToeBase
					{
						OFFSET -0.108140 -7.191069 7.372968
						CHANNELS 3 Xrotation Yrotation Zrotation
						JOINT RightToe_End
						{
							OFFSET -0.070227 0.081735 4.479403
							CHANNELS 3 Xrotation Yrotation Zrotation
							End Site
							{
								OFFSET 0 0 0
							}
						}
					}
				}
			}
		}
	}
	JOINT Spine_virtual
	{
		OFFSET 0.000000 0.000000 0.000000
		CHANNELS 3 Xrotation Yrotation Zrotation
		JOINT Spine
		{
			OFFSET 0.000000 6.876099 0.125700
			CHANNELS 3 Xrotation Yrotation Zrotation
			JOINT Spine1
			{
				OFFSET 0.000000 5.730043 0.104720
				CHANNELS 3 Xrotation Yrotation Zrotation
				JOINT Spine1_split
				{
					OFFSET 0.000000 5.730043 0.104720
					CHANNELS 3 Xrotation Yrotation Zrotation
					JOINT Spine2
					{
						OFFSET 0.000000 5.730043 0.104720
						CHANNELS 3 Xrotation Yrotation Zrotation
						JOINT Neck_virtual
						{
							OFFSET 0.000000 0.000000 0.000000
							CHANNELS 3 Xrotation Yrotation Zrotation
							JOINT Neck
							{
								OFFSET 0.000000 10.314075 0.188496
								CHANNELS 3 Xrotation Yrotation Zrotation
								JOINT Head
								{
									OFFSET 0.000000 7.643700 -2.377400
									CHANNELS 3 Xrotation Yrotation Zrotation
									JOINT HeadTop_End
									{
										OFFSET 0.000000 43.788605 -13.619600
										CHANNELS 3 Xrotation Yrotation Zrotation
										End Site
										{
											OFFSET 0 0 0
										}
									}
								}
							}
						}
						JOINT LeftShoulder_virtual
						{
							OFFSET 0.000000 0.000000 0.000000
							CHANNELS 3 Xrotation Yrotation Zrotation
							JOINT LeftShoulder
							{
								OFFSET 2.196100 4.412489 0.087492
								CHANNELS 3 Xrotation Yrotation Zrotation
								JOINT LeftShoulder_split
								{
									OFFSET 2.196100 4.412489 0.087492
									CHANNELS 3 Xrotation Yrotation Zrotation
									JOINT LeftArm
									{
										OFFSET 8.771219 -2.981674 -0.026999
										CHANNELS 3 Xrotation Yrotation Zrotation
										JOINT LeftForeArm
										{
											OFFSET 8.512804 0.000000 -0.000000
											CHANNELS 3 Xrotation Yrotation Zrotation
											JOINT LeftHand
											{
												OFFSET 18.484802 0.000000 -0.000000
												CHANNELS 3 Xrotation Yrotation Zrotation
												End Site
												{
													OFFSET 0 0 0
												}
											}
										}
									}
								}
							}
						}
						JOINT RightShoulder_virtual
						{
							OFFSET 0.000000 0.000000 0.000000
							CHANNELS 3 Xrotation Yrotation Zrotation
							JOINT RightShoulder
							{
								OFFSET -2.196100 4.412496 0.070690
								CHANNELS 3 Xrotation Yrotation Zrotation
								JOINT RightShoulder_split
								{
									OFFSET -2.196100 4.412496 0.070690
									CHANNELS 3 Xrotation Yrotation Zrotation
									JOINT RightArm
									{
										OFFSET -8.771282 -2.981682 -0.094208
										CHANNELS 3 Xrotation Yrotation Zrotation
										JOINT RightForeArm
										{
											OFFSET -8.494598 0.000000 0.000000
											CHANNELS 3 Xrotation Yrotation Zrotation
											JOINT RightHand
											{
												OFFSET -18.483803 0.000000 0.000001
												CHANNELS 3 Xrotation Yrotation Zrotation
												End Site
												{
													OFFSET 0 0 0
												}
											}
										}
									}
								}
							}
						}
					}
				}
			}
		}
	}
}
MOTION
Frames: 8
Frame Time: 0.03333333
-32.283257 8.385874 1.183718 0.000000 0.000000 0.000000 -48.787495 10.195380 101.565377 -35.883413 10.457330 3.711679 68.947946 -2.769899 -18.038682 -16.050443 -14.825221 -3.240763 -4.884509 -2.933576 7.550701 0.000000 0.000000 0.000000 -56.987253 6.428203 104.062358 -64.315650 8.491667 -52.295811 121.572545 7.700641 2.652698 6.947334 4.825203 28.191339 7.846625 -0.068348 3.891602 0.000000 0.000000 0.000000 -49.727001 6.390265 97.178825 13.066704 -1.062957 -6.944627 16.417560 0.147479 -2.605579 0.522287 1.443555 -1.091584 0.000000 0.000000 0.000000 12.179142 0.872838 -2.019131 42.431983 7.818135 -11.666725 -7.271663 12.851665 -2.101879 0.000000 0.000000 0.000000 14.422761 1.946416 -2.617880 0.065326 -3.328003 -12.705981 1.428275 -12.225494 -0.545839 -56.802237 -8.871472 -22.909617 46.623954 -12.459741 10.953092 0.000000 0.000000 0.000000 15.904198 1.860851 -3.104369 4.964771 19.785902 -10.721771 -9.273180 -6.173402 2.778674 -23.102398 -4.564034 16.252288 23.326827 48.780719 -15.552986 0.000000 0.000000 0.000000 
-34.010605 6.529104 1.605446 0.000000 0.000000 0.000000 -51.933637 -1.073736 107.686805 -28.887086 3.565264 -5.906094 65.440404 2.701529 -14.271117 -16.556401 -9.290932 -3.675057 -6.131896 -2.684108 5.960156 0.000000 0.000000 0.000000 -58.567731 -4.164967 109.073825 -61.415797 11.134486 -55.027914 120.615731 2.676983 4.299899 4.430834 1.969053 24.753169 3.908503 -0.942917 5.266969 0.000000 0.000000 0.000000 -52.926262 -2.619701 102.069316 13.909287 -1.669488 -6.856033 16.389737 -0.302481 -1.602725 0.785240 1.976106 -0.723167 0.000000 0.000000 0.000000 11.914184 0.206169 -0.906210 39.388390 4.717876 -9.039615 -7.092206 5.571413 -2.046847 0.000000 0.000000 0.000000 14.036659 1.349644 -1.351031 -0.295251 -3.926307 -17.231030 -0.021712 -11.227690 -0.347047 -60.933115 -2.948596 -26.390022 47.954830 -14.712089 12.559807 0.000000 0.000000 0.000000 15.970118 1.180622 -2.045948 4.900896 20.093329 -10.436437 -8.965576 -5.942890 2.796462 -19.226622 -3.538244 14.826145 27.208847 46.247313 -20.047674 0.000000 0.000000 0.000000 
-35.760986 5.384989 1.838659 0.000000 0.000000 0.000000 -54.396450 -11.100034 111.227384 -24.743749 -2.765064 -11.378005 61.482248 8.165872 -10.860861 -10.864570 -2.793453 -5.019094 -6.238186 -2.161142 4.285568 0.000000 0.000000 0.000000 -59.237500 -12.912531 111.623931 -54.876670 10.068938 -58.566256 116.021664 -1.682958 5.482980 1.509272 1.409797 24.049096 0.058077 -0.859057 4.734187 0.000000 0.000000 0.000000 -56.056964 -9.933944 104.778346 15.088050 -1.896559 -6.026467 15.300906 -0.348369 -0.231226 -0.547724 1.738390 0.580600 0.000000 0.000000 0.000000 10.686126 -0.008687 0.408585 34.576422 1.478813 -6.195039 -9.675357 -2.753835 -1.910876 0.000000 0.000000 0.000000 12.487773 1.202586 0.234998 -0.650694 -4.102410 -20.605643 -1.300792 -10.057475 -1.584260 -63.975240 8.784308 -26.614814 50.939834 -19.840134 17.480969 0.000000 0.000000 0.000000 14.689695 0.864193 -0.707778 5.052776 20.229437 -10.533040 -9.642251 -5.945571 3.145461 -16.792852 1.626545 12.584526 25.197592 44.134025 -19.912786 0.000000 0.000000 0.000000 
-37.417320 4.958181 1.801765 0.000000 0.000000 0.000000 -57.361138 -18.890673 112.141536 -22.564061 -6.462303 -11.830657 58.001625 12.909485 -8.354469 1.610208 2.815985 -8.002139 -5.214672 -1.540450 2.792130 0.000000 0.000000 0.000000 -60.918102 -19.334461 111.658041 -46.643638 5.431069 -60.516466 107.109053 -5.656285 6.460137 -1.880754 1.651264 24.740518 -1.230779 0.137708 2.667678 0.000000 0.000000 0.000000 -59.682849 -15.448713 105.259676 16.703658 -1.828539 -4.253994 13.544581 -0.338117 1.332471 -1.388869 1.007519 1.741940 0.000000 0.000000 0.000000 8.983001 -0.076965 1.734501 28.590547 -1.372532 -3.626807 -14.262110 -10.516061 -2.405595 0.000000 0.000000 0.000000 10.357636 1.097932 1.932222 -0.909563 -4.418711 -22.195985 -2.008722 -9.049623 -3.482792 -67.111567 22.524610 -23.206030 56.504683 -25.815610 25.933386 0.000000 0.000000 0.000000 12.601587 0.615935 0.736896 5.329621 19.798116 -10.907899 -10.427730 -7.224446 4.126808 -16.542583 8.489843 10.546154 17.726673 41.089267 -15.371180 0.000000 0.000000 0.000000 
-38.904060 5.154858 1.354349 0.000000 0.000000 0.000000 -60.893739 -23.993319 110.183082 -21.477243 -6.674898 -7.933783 55.886633 16.495052 -6.937304 16.498436 5.884675 -11.175864 -4.069352 -1.054429 2.018604 0.000000 0.000000 0.000000 -64.575013 -22.750329 109.903379 -38.081761 -1.497898 -59.683832 94.612627 -8.991665 6.980853 -4.707418 2.045145 25.508627 0.538541 1.532430 0.098829 0.000000 0.000000 0.000000 -63.587306 -19.317527 103.999445 18.648418 -1.429631 -1.584743 11.713829 -0.538864 2.820353 -2.097106 0.868508 2.185185 0.000000 0.000000 0.000000 7.359760 -0.250729 2.956478 22.692110 -3.341904 -1.287423 -19.790352 -16.062699 -3.573731 0.000000 0.000000 0.000000 8.268869 0.789409 3.500420 -1.024876 -4.824045 -21.980561 -2.388020 -8.812683 -4.980952 -70.807048 33.464847 -17.584850 64.528636 -29.597115 36.878561 0.000000 0.000000 0.000000 10.313788 0.195168 2.016473 5.606128 18.423300 -11.627155 -11.311304 -9.707518 5.577734 -17.402258 14.186564 9.632828 7.308699 35.899765 -8.477317 0.000000 0.000000 0.000000 
-40.320190 5.731117 0.844177 0.000000 0.000000 0.000000 -65.021796 -25.789522 106.424353 -20.950801 -4.219448 -1.775307 54.245875 18.873102 -6.055674 27.299293 6.461044 -12.496880 -3.720248 -0.886996 2.288108 0.000000 0.000000 0.000000 -70.316367 -23.348590 107.571204 -30.241824 -8.577171 -56.226626 80.523723 -12.005613 7.336402 -5.809919 1.796016 25.247164 3.760461 2.516818 -1.896417 0.000000 0.000000 0.000000 -67.362529 -21.642918 101.385081 20.706772 -0.866538 1.593422 10.200053 -0.977952 3.940936 -2.028757 0.914500 2.062046 0.000000 0.000000 0.000000 6.094179 -0.627381 3.835458 17.513554 -4.588682 1.002673 -24.934304 -18.937864 -4.702158 0.000000 0.000000 0.000000 6.732678 0.236730 4.693570 -1.014657 -5.659025 -20.208639 -2.127481 -8.515813 -5.882949 -73.286031 39.183539 -12.464230 71.774633 -29.092778 46.599089 0.000000 0.000000 0.000000 8.382787 -0.430868 2.963503 5.723461 16.224344 -12.335994 -11.772968 -12.583920 6.778556 -18.422861 17.488928 10.103671 -2.832898 28.924693 -1.988734 0.000000 0.000000 0.000000 
-41.649437 6.364468 0.345877 0.000000 0.000000 0.000000 -69.602380 -24.523359 102.690405 -20.719024 -0.351253 4.502487 51.232477 19.401711 -4.878064 30.104660 5.144108 -11.494406 -5.026617 -1.163703 3.639842 0.000000 0.000000 0.000000 -76.901004 -22.475991 105.688995 -24.912080 -13.690098 -52.216561 68.236602 -14.686865 7.571859 -4.535136 0.680346 23.828469 6.354386 2.635133 -2.732528 0.000000 0.000000 0.000000 -70.932300 -22.692969 98.558612 22.396014 -0.378197 4.651826 9.071665 -1.543562 4.589765 -1.036170 1.537406 1.042829 0.000000 0.000000 0.000000 5.163976 -1.109158 4.299426 13.965828 -5.657489 3.539568 -28.879006 -19.440995 -4.999261 0.000000 0.000000 0.000000 5.956531 -0.471148 5.384563 -0.826053 -6.714012 -17.267782 -0.986153 -8.323035 -6.106450 -72.645728 39.781566 -10.753300 74.609640 -25.150498 51.504230 0.000000 0.000000 0.000000 7.174775 -1.060680 3.508554 5.643804 13.206518 -13.407561 -11.659269 -14.644093 7.420410 -19.277833 17.697848 11.532790 -10.872280 21.540668 2.556828 0.000000 0.000000 0.000000 
-42.926712 6.853853 0.004534 0.000000 0.000000 0.000000 -73.702160 -21.055885 100.385947 -20.847831 3.188878 9.367890 46.424659 17.414785 -3.249398 25.806135 2.136826 -9.906531 -7.059919 -1.819942 5.522705 0.000000 0.000000 0.000000 -82.961035 -20.954315 104.693399 -22.588870 -16.858196 -50.189514 59.397538 -16.979097 7.571580 -0.888041 -1.062181 21.439718 6.495628 2.047563 -2.405081 0.000000 0.000000 0.000000 -73.561923 -22.315413 96.543693 23.254730 -0.105525 7.048567 8.260678 -2.010523 4.842664 -0.456953 2.919394 -0.099012 0.000000 0.000000 0.000000 4.362624 -1.513565 4.449313 12.298070 -7.151652 6.511077 -31.178731 -18.910231 -4.167605 0.000000 0.000000 0.000000 5.701647 -1.060056 5.665025 -0.566509 -7.581601 -13.835771 0.140292 -7.663974 -6.177958 -68.701915 36.703398 -12.640271 73.022311 -20.099010 52.034154 0.000000 0.000000 0.000000 6.543497 -1.421227 3.717812 5.351277 9.929714 -15.010522 -11.716815 -14.827144 6.764970 -19.635981 15.398204 12.569344 -16.646761 15.385442 5.107876 0.000000 0.000000 0.000000 
